<?xml version="1.0" standalone="no"?>
<!DOCTYPE svg PUBLIC "-//W3C//DTD SVG 20010904//EN"
 "http://www.w3.org/TR/2001/REC-SVG-20010904/DTD/svg10.dtd">
<svg version="1.0" xmlns="http://www.w3.org/2000/svg"
 width="1080.000000pt" height="1080.000000pt" viewBox="0 0 1080.000000 1080.000000"
 preserveAspectRatio="xMidYMid meet">

<g transform="translate(0.000000,1080.000000) scale(0.100000,-0.100000)"
fill="#000000" stroke="none">
<path d="M6200 8865 c-5 -14 -13 -65 -16 -113 -3 -48 -10 -100 -15 -117 -5
-16 -13 -70 -19 -119 -11 -105 -5 -119 49 -114 41 3 34 -23 65 238 10 74 22
157 28 183 5 27 9 50 7 51 -2 2 -23 7 -46 11 -40 6 -44 5 -53 -20z"/>
<path d="M5598 8763 c-10 -2 -21 -17 -24 -31 -4 -15 -12 -47 -19 -72 -7 -25
-18 -67 -24 -95 -7 -27 -14 -51 -17 -54 -6 -7 -27 23 -84 121 -28 48 -55 90
-60 93 -11 7 -90 -15 -90 -24 1 -3 32 -55 70 -116 38 -60 82 -132 97 -158 29
-52 34 -53 109 -22 29 12 33 19 39 62 4 26 11 59 16 73 9 25 59 216 59 225 0
6 -48 5 -72 -2z"/>
<path d="M5791 8739 c-46 -33 -81 -95 -81 -144 0 -38 31 -104 61 -132 57 -52
163 -69 229 -35 71 35 40 95 -37 68 -49 -17 -100 -4 -130 32 -13 15 -23 30
-23 35 0 4 63 7 140 7 140 0 140 0 140 23 0 53 -32 118 -73 148 -35 26 -48 29
-112 29 -64 0 -76 -3 -114 -31z m168 -55 c17 -14 31 -34 31 -45 0 -17 -8 -19
-79 -19 -44 0 -83 5 -86 10 -12 19 6 48 38 64 44 22 61 20 96 -10z"/>
<path d="M6432 8680 c-53 -24 -64 -35 -92 -90 -17 -33 -21 -55 -17 -93 5 -56
27 -90 84 -131 35 -24 50 -28 115 -29 64 -1 81 2 110 22 93 64 104 192 25 278
-23 26 -115 63 -155 63 -15 0 -46 -9 -70 -20z m158 -95 c69 -73 -23 -213 -112
-169 -57 29 -73 86 -42 147 22 42 30 47 85 47 36 0 51 -5 69 -25z"/>
<path d="M5035 8641 c-22 -10 -55 -35 -73 -55 -30 -34 -32 -42 -32 -109 0 -61
4 -78 25 -110 33 -48 72 -67 138 -67 84 0 114 9 160 50 42 38 42 38 23 59 -25
28 -44 26 -86 -9 -41 -36 -81 -39 -128 -10 -43 26 -37 43 18 52 24 4 48 12 54
18 5 5 18 10 28 10 21 0 110 29 121 40 10 9 -17 65 -47 98 -47 52 -129 65
-201 33z m127 -78 c10 -9 18 -20 18 -24 0 -11 -66 -39 -90 -39 -10 0 -23 -6
-29 -14 -14 -17 -51 -9 -51 11 0 21 27 70 42 76 29 12 92 6 110 -10z"/>
<path d="M6828 8563 c-11 -27 -38 -85 -132 -286 -25 -54 -46 -105 -46 -113 0
-15 38 -34 69 -34 11 0 28 23 49 66 l33 66 20 -25 c34 -44 82 -67 138 -67 81
0 133 36 165 114 49 119 -31 245 -156 246 -34 0 -48 4 -48 14 0 16 -42 46 -65
46 -8 0 -21 -12 -27 -27z m188 -137 c39 -39 42 -61 13 -111 -26 -43 -46 -55
-94 -55 -51 0 -85 36 -85 91 0 54 51 109 100 109 23 0 42 -9 66 -34z"/>
<path d="M4479 8508 c-67 -34 -124 -68 -126 -76 -3 -7 7 -37 21 -65 108 -207
172 -318 189 -329 10 -6 73 24 177 85 48 27 120 98 120 117 0 8 7 24 15 34 20
26 20 110 0 130 -8 8 -15 22 -15 31 0 28 -58 92 -103 114 -28 14 -63 21 -100
21 -50 0 -71 -7 -178 -62z m250 -55 c26 -22 61 -96 61 -130 0 -30 -21 -72 -52
-100 -34 -32 -120 -75 -130 -65 -15 15 -127 221 -130 239 -2 12 8 23 29 34 18
9 38 21 45 27 34 27 143 24 177 -5z"/>
<path d="M7224 8311 c-44 -27 -91 -88 -99 -127 -11 -59 4 -102 55 -157 38 -42
60 -57 105 -71 64 -20 75 -15 75 35 0 23 -6 28 -43 38 -72 17 -106 60 -97 121
3 23 8 25 27 8 54 -47 187 -128 202 -123 27 8 41 49 41 117 0 52 -4 65 -31 99
-59 75 -166 102 -235 60z m141 -71 c15 -6 32 -24 40 -45 17 -40 18 -45 6 -64
-8 -12 -23 -5 -80 33 -39 27 -71 52 -71 57 0 25 60 36 105 19z"/>
<path d="M7518 7994 c-62 -69 -114 -129 -116 -134 -2 -4 13 -21 33 -36 l36
-27 78 81 c86 90 101 96 158 61 l34 -21 25 23 c13 12 24 28 24 35 0 17 -52 44
-83 44 -20 0 -23 4 -19 25 3 17 -3 33 -19 50 -13 13 -27 25 -31 25 -3 0 -57
-57 -120 -126z"/>
<path d="M4050 8058 c-36 -18 -50 -34 -70 -76 l-25 -52 -50 50 c-27 27 -57 50
-65 50 -19 0 -64 -44 -59 -58 6 -14 322 -342 330 -342 5 0 21 14 38 32 22 23
27 36 20 45 -8 9 -1 14 28 22 43 12 96 61 112 104 57 152 -114 300 -259 225z
m108 -82 c46 -24 65 -52 65 -98 0 -54 -36 -88 -93 -88 -33 0 -44 6 -74 42 -41
48 -45 74 -15 112 35 45 73 55 117 32z"/>
<path d="M3744 7708 c-66 -51 -94 -103 -94 -170 0 -90 89 -178 180 -178 76 0
167 75 196 162 20 62 14 80 -28 76 -27 -3 -34 -8 -43 -38 -20 -68 -64 -110
-115 -110 -37 0 -30 20 40 115 39 53 74 103 76 110 4 9 -7 22 -28 35 -48 29
-145 28 -184 -2z m106 -58 c12 -7 5 -22 -35 -79 -26 -39 -52 -71 -56 -71 -13
0 -29 36 -29 64 0 14 14 41 31 61 31 35 60 43 89 25z"/>
<path d="M8115 7612 c-44 -26 -98 -56 -119 -67 -139 -70 -172 -197 -85 -319
67 -94 141 -117 236 -73 83 37 253 141 253 153 0 15 -33 74 -41 74 -4 0 -51
-25 -105 -56 -183 -104 -190 -107 -223 -89 -45 23 -71 62 -71 108 0 51 36 87
152 151 138 76 145 86 100 143 l-17 22 -80 -47z"/>
<path d="M7727 7592 c-10 -10 -17 -26 -17 -36 0 -11 -15 -24 -40 -34 -30 -13
-40 -23 -40 -39 0 -20 5 -23 35 -23 42 0 124 26 148 48 22 20 22 64 -1 85 -24
22 -65 21 -85 -1z"/>
<path d="M3414 7461 c-4 -17 -11 -34 -15 -37 -5 -3 -9 -9 -9 -13 0 -14 61 -74
135 -135 39 -31 80 -67 93 -79 l23 -22 -27 -3 c-14 -2 -86 1 -160 7 -73 6
-140 8 -148 5 -8 -3 -20 -22 -27 -42 -13 -39 -27 -22 134 -170 25 -23 58 -47
73 -52 15 -6 24 -13 20 -17 -3 -3 -1 -12 5 -20 9 -11 -1 -12 -62 -8 -265 17
-256 17 -277 -13 -29 -42 -33 -60 -14 -66 9 -3 96 -8 192 -11 96 -4 192 -11
214 -15 52 -11 63 -5 87 49 l20 46 -29 25 c-16 14 -73 63 -128 110 l-99 85 59
3 c32 2 81 -2 108 -7 27 -6 76 -11 108 -11 56 0 60 2 75 30 28 54 20 72 -57
142 -40 36 -95 83 -121 104 -27 21 -75 63 -108 93 l-59 54 -6 -32z"/>
<path d="M8423 7138 c-15 -24 -30 -45 -34 -48 -3 -3 -25 -31 -48 -63 -48 -65
-43 -65 -165 -26 -32 11 -67 19 -77 19 -10 0 -21 5 -24 10 -3 6 -15 10 -27 10
-18 0 -20 -4 -14 -32 10 -51 31 -75 73 -83 74 -13 134 -37 129 -51 -3 -7 -28
-44 -55 -82 l-51 -70 14 -47 15 -47 -39 6 -39 6 13 -42 c12 -43 12 -43 67 -49
31 -3 61 -9 66 -12 8 -5 186 -34 358 -57 33 -5 79 -13 102 -18 23 -5 45 -7 48
-4 3 3 5 22 5 43 l0 37 -67 7 c-38 3 -84 10 -103 16 -19 6 -66 14 -105 19 -38
4 -101 13 -140 20 -38 6 -85 13 -102 16 -18 3 -33 11 -33 18 0 7 17 36 38 64
20 28 53 74 72 101 19 28 40 51 45 51 6 0 60 -16 120 -35 122 -39 147 -39 121
0 -9 13 -16 33 -16 44 0 16 -9 21 -45 27 -25 3 -48 10 -51 15 -3 5 -11 9 -19
9 -8 0 -26 4 -40 10 l-26 10 43 60 c24 34 49 69 55 78 10 14 10 23 -2 46 -8
16 -15 37 -15 47 0 31 -18 22 -47 -23z"/>
<path d="M3335 6430 c-20 -39 -20 -39 15 -51 17 -6 30 -14 30 -18 0 -4 -18
-25 -41 -46 -38 -37 -42 -39 -53 -21 -37 62 -57 76 -106 76 -41 0 -52 -4 -74
-30 -43 -52 -47 -147 -8 -200 16 -21 29 -26 76 -28 38 -2 63 2 77 12 20 14 24
12 60 -34 32 -40 44 -48 78 -52 67 -6 96 7 125 56 22 38 26 57 26 121 0 55 -5
85 -17 106 -14 24 -15 33 -5 47 22 31 25 44 15 61 -15 23 -42 26 -57 5 -13
-17 -16 -17 -64 4 -28 12 -53 22 -56 22 -3 0 -12 -13 -21 -30z m145 -197 c0
-36 -29 -91 -52 -99 -31 -9 -66 4 -85 32 -16 26 -16 26 43 80 59 54 59 54 77
33 9 -12 17 -32 17 -46z m-262 41 c12 -8 22 -24 22 -34 0 -21 -36 -50 -62 -50
-24 0 -50 42 -41 66 13 37 44 44 81 18z"/>
<path d="M8425 6360 c-120 -11 -163 -35 -195 -107 -43 -98 -18 -212 62 -276
44 -36 115 -44 282 -32 l107 7 -3 41 -3 42 -160 3 c-157 2 -160 3 -187 29 -24
23 -28 35 -28 80 0 94 34 109 288 129 l82 7 0 43 0 44 -87 -1 c-49 -1 -119 -5
-158 -9z"/>
<path d="M8206 5845 c-11 -30 -7 -95 7 -95 32 -2 214 -21 312 -33 61 -8 116
-12 123 -10 6 3 12 15 12 27 0 11 3 31 6 42 5 20 0 22 -78 34 -45 7 -141 18
-213 25 -71 7 -137 16 -146 19 -11 5 -19 1 -23 -9z"/>
<path d="M3389 5791 c-26 -26 -29 -37 -30 -93 -1 -79 -10 -112 -31 -116 -24
-5 -42 35 -48 107 -5 60 -7 65 -32 72 -15 4 -29 4 -32 1 -3 -3 -6 -36 -6 -74
0 -115 43 -185 119 -195 35 -5 44 -2 71 25 28 28 30 35 30 104 0 48 5 81 14
94 14 19 15 18 41 -6 26 -24 27 -29 23 -97 l-5 -71 29 -4 c43 -7 52 12 45 96
-6 87 -34 149 -77 171 -44 23 -78 19 -111 -14z"/>
<path d="M8140 5453 c-7 -27 -16 -52 -20 -58 -22 -30 -50 -146 -50 -203 0 -94
38 -155 122 -198 92 -47 215 -24 275 52 34 43 99 201 109 263 l6 40 -48 15
c-27 8 -74 24 -104 36 -30 12 -64 24 -75 27 -11 3 -59 21 -107 39 -49 19 -90
34 -92 34 -2 0 -9 -21 -16 -47z m176 -119 c160 -58 163 -60 157 -86 -9 -40
-51 -123 -70 -140 -57 -50 -100 -54 -174 -17 -57 28 -72 60 -67 138 5 65 30
141 47 141 5 0 53 -16 107 -36z"/>
<path d="M3468 5467 c-27 -21 -28 -26 -30 -127 -3 -97 -4 -105 -23 -105 -25 0
-58 63 -59 114 -1 41 -10 51 -48 51 -25 0 -28 -4 -28 -33 0 -19 9 -64 21 -100
33 -105 99 -148 168 -111 l36 19 5 110 c4 93 8 110 22 113 28 5 50 -43 56
-117 l5 -69 34 -4 c18 -2 36 -2 38 1 23 22 -16 193 -53 234 -44 49 -102 59
-144 24z"/>
<path d="M3656 5143 c-13 -32 -5 -61 24 -88 33 -31 46 -77 35 -125 -11 -52
-35 -32 -92 80 -29 58 -54 110 -56 115 -7 17 -78 -27 -103 -64 -44 -65 -29
-178 32 -235 61 -57 132 -70 200 -36 56 28 68 40 89 83 23 49 22 110 -3 168
-33 75 -112 140 -126 102z m-86 -134 c0 -6 14 -38 30 -71 17 -32 30 -63 30
-68 0 -6 -16 -10 -35 -10 -68 0 -112 93 -68 142 18 20 43 24 43 7z"/>
<path d="M7975 4969 c-76 -41 -124 -117 -125 -196 0 -39 2 -43 24 -43 32 0 56
25 56 59 0 55 109 141 125 99 3 -8 -23 -64 -59 -123 -47 -79 -62 -112 -55
-121 12 -14 101 -36 121 -30 7 3 25 7 40 10 99 22 161 176 107 266 -25 40 -39
53 -91 80 -48 26 -93 25 -143 -1z m175 -175 c0 -56 -52 -111 -96 -100 -13 4
-24 11 -24 16 0 6 19 42 42 81 l42 71 18 -22 c10 -12 18 -33 18 -46z"/>
<path d="M3915 4740 c-10 -11 -22 -20 -28 -20 -5 0 -26 -13 -46 -29 -68 -54
-134 -60 -170 -17 -18 22 -44 20 -72 -4 l-24 -20 33 -30 c18 -16 42 -30 54
-30 20 0 20 -1 4 -19 -17 -19 -17 -21 5 -51 13 -17 30 -30 39 -28 8 2 72 41
142 88 138 92 145 103 104 153 l-22 28 -19 -21z"/>
<path d="M7726 4637 c-81 -79 -106 -154 -69 -207 24 -35 33 -40 78 -40 33 0
50 9 100 50 65 55 88 59 93 19 2 -20 -9 -38 -48 -77 -46 -44 -50 -52 -41 -71
18 -34 47 -25 104 33 61 61 87 128 66 169 -24 46 -51 67 -89 67 -30 0 -48 -9
-95 -51 -67 -58 -101 -64 -98 -14 2 20 15 42 43 67 23 21 44 38 48 38 4 0 13
4 21 9 11 7 10 13 -4 35 -10 14 -26 26 -36 26 -10 0 -43 -24 -73 -53z"/>
<path d="M3845 4462 c-17 -10 -45 -35 -63 -56 -40 -46 -43 -103 -10 -168 25
-48 164 -198 183 -198 13 0 301 264 318 291 8 12 3 25 -18 54 l-29 37 -27 -30
c-25 -27 -59 -52 -73 -52 -3 0 -30 24 -60 54 -88 85 -157 107 -221 68z m137
-100 c37 -25 80 -72 76 -86 -2 -6 -28 -35 -59 -64 l-56 -52 -42 45 c-67 73
-75 126 -23 158 35 21 70 21 104 -1z"/>
<path d="M7516 4405 l-27 -25 39 -48 c58 -67 197 -202 210 -202 5 0 22 14 37
32 l26 31 -118 119 c-65 65 -123 118 -129 118 -6 0 -23 -11 -38 -25z"/>
<path d="M7291 4370 c-133 -61 -193 -169 -145 -263 13 -25 103 -149 200 -276
17 -22 77 23 72 54 -4 21 0 23 43 29 37 5 55 15 86 46 79 79 78 176 -4 251
-39 36 -47 39 -101 39 -49 0 -66 -5 -99 -29 -22 -16 -51 -46 -63 -67 l-23 -37
-19 23 c-45 55 -2 123 107 171 40 18 46 24 43 47 -4 35 -38 39 -97 12z m191
-240 c26 -27 30 -36 25 -67 -8 -46 -43 -82 -88 -89 -28 -5 -41 -1 -67 21 -44
37 -45 93 -3 136 41 41 91 40 133 -1z"/>
<path d="M4323 4268 c-11 -13 -34 -43 -52 -68 -17 -25 -56 -79 -86 -120 -30
-41 -71 -99 -91 -129 l-37 -53 29 -24 c16 -13 34 -23 40 -24 12 0 64 62 64 77
1 12 50 46 50 34 0 -17 61 -81 91 -97 15 -7 52 -14 82 -14 49 0 59 4 99 40 85
74 102 163 48 238 -32 45 -94 82 -136 82 -21 0 -24 3 -15 14 9 11 5 19 -19 40
-38 32 -41 32 -67 4z m135 -148 c29 -18 32 -24 32 -67 -1 -60 -31 -101 -81
-109 -49 -8 -83 9 -103 50 -21 44 -13 77 26 116 35 36 78 39 126 10z"/>
<path d="M7822 4123 c-21 -8 -33 -50 -22 -78 7 -19 17 -25 39 -25 37 0 61 23
61 59 0 43 -33 62 -78 44z"/>
<path d="M7043 4048 c-37 -18 -36 -41 7 -126 48 -98 52 -141 14 -171 -37 -29
-79 -27 -109 5 -14 15 -40 60 -60 101 -38 80 -56 94 -84 69 -10 -9 -23 -16
-29 -16 -20 0 -14 -18 44 -131 64 -126 85 -144 159 -143 61 1 108 24 137 68
19 29 24 32 34 18 10 -14 15 -13 44 4 19 10 35 24 37 29 5 17 -143 300 -158
302 -8 1 -24 -3 -36 -9z"/>
<path d="M4740 3939 c-19 -38 -46 -84 -61 -102 -25 -30 -30 -32 -88 -29 -58 2
-61 1 -67 -24 -9 -35 16 -54 69 -54 33 0 38 -2 32 -19 -5 -15 1 -24 24 -35 17
-9 36 -16 43 -16 7 0 33 39 58 88 25 48 60 113 77 144 18 31 33 61 33 66 0 8
-71 52 -83 52 -1 0 -18 -32 -37 -71z"/>
<path d="M4955 3883 c-70 -20 -131 -114 -122 -191 3 -24 9 -47 13 -51 5 -3 16
-19 24 -36 21 -40 109 -85 167 -85 46 0 107 25 135 56 24 28 48 92 48 129 0
63 -34 117 -100 158 -26 17 -131 29 -165 20z m141 -109 c40 -42 42 -69 11
-115 -29 -43 -63 -61 -102 -53 -50 10 -75 41 -75 92 0 37 6 50 34 78 47 47 87
46 132 -2z"/>
<path d="M6555 3841 c-68 -18 -135 -65 -135 -95 0 -3 11 -13 25 -22 24 -16 27
-15 63 9 20 14 47 28 60 32 26 8 85 -10 102 -30 10 -12 7 -17 -16 -25 -16 -6
-38 -14 -49 -19 -11 -5 -56 -18 -100 -30 -44 -13 -82 -25 -84 -27 -3 -2 5 -24
17 -48 59 -123 211 -141 306 -35 34 37 36 42 36 113 0 82 -21 126 -75 157 -36
21 -109 31 -150 20z m141 -213 c-8 -40 -23 -56 -63 -67 -24 -7 -40 -5 -64 7
-60 31 -46 49 61 78 71 19 73 18 66 -18z"/>
<path d="M6275 3773 c-43 -6 -46 -13 -35 -74 6 -30 11 -81 11 -114 1 -53 -1
-61 -27 -82 -16 -12 -37 -23 -49 -25 -16 -2 -19 -9 -17 -33 4 -38 5 -38 43
-37 18 0 40 10 51 22 18 19 21 20 32 5 8 -12 23 -16 51 -13 40 3 40 3 38 43
-1 22 -9 81 -18 130 -8 50 -17 111 -21 138 -3 28 -10 46 -17 46 -7 -1 -25 -4
-42 -6z"/>
<path d="M5387 3730 c-9 -22 -17 -46 -17 -54 0 -7 -7 -19 -15 -26 -8 -7 -15
-17 -15 -22 0 -5 -11 -33 -24 -61 -70 -150 -106 -231 -106 -239 0 -5 21 -8 47
-6 52 3 47 -4 104 123 71 157 80 175 89 175 5 0 11 -10 14 -22 2 -13 9 -50 15
-83 7 -33 17 -89 23 -125 13 -77 30 -99 81 -103 l37 -2 46 100 c26 55 58 124
71 154 29 63 32 61 57 -54 37 -176 49 -220 60 -227 6 -4 28 -8 49 -8 28 0 37
4 37 16 0 21 -36 183 -55 249 -8 28 -17 76 -20 107 -4 32 -11 60 -16 63 -5 4
-9 15 -9 26 0 13 -7 19 -24 19 -13 0 -37 3 -53 6 -27 5 -30 3 -57 -58 -76
-167 -114 -240 -120 -230 -7 11 -31 121 -49 225 -14 79 -31 97 -92 97 -38 0
-41 -3 -58 -40z"/>
<path d="M6000 3737 c-35 -17 -39 -62 -9 -94 26 -27 63 -25 86 5 40 53 -17
119 -77 89z"/>
</g>
</svg>
